<?xml version="1.0" standalone="no"?>
<!DOCTYPE svg PUBLIC "-//W3C//DTD SVG 20010904//EN"
 "http://www.w3.org/TR/2001/REC-SVG-20010904/DTD/svg10.dtd">
<svg version="1.0" xmlns="http://www.w3.org/2000/svg"
 width="1152.000000pt" height="1152.000000pt" viewBox="0 0 1152.000000 1152.000000"
 preserveAspectRatio="xMidYMid meet">
<metadata>
Created by potrace 1.14, written by Peter Selinger 2001-2017
</metadata>
<g transform="translate(0.000000,1152.000000) scale(0.100000,-0.100000)"
fill="#000000" stroke="none">
<path d="M9810 8599 c-58 -52 -246 -227 -325 -301 -33 -31 -70 -65 -82 -76
-12 -10 -72 -65 -134 -123 -62 -57 -144 -133 -183 -169 -38 -36 -84 -78 -100
-94 -17 -15 -75 -69 -130 -120 -54 -50 -116 -107 -136 -126 -21 -19 -87 -80
-146 -135 -59 -55 -133 -123 -163 -152 -31 -28 -57 -50 -60 -48 -2 2 -3 310
-4 685 0 624 -1 679 -16 668 -35 -27 -116 -93 -121 -98 -3 -3 -75 -63 -160
-134 -85 -71 -160 -135 -166 -142 -6 -8 -16 -14 -23 -14 -6 0 -11 -4 -11 -8 0
-4 -21 -24 -47 -44 -27 -21 -59 -47 -73 -60 -14 -13 -61 -52 -105 -88 -44 -36
-82 -68 -85 -71 -3 -3 -63 -54 -135 -114 l-130 -107 0 -1439 c-1 -791 2 -1439
5 -1439 3 0 21 15 41 33 19 17 75 68 124 112 49 44 101 91 116 105 15 14 58
53 96 86 37 34 80 72 94 85 52 48 191 174 212 192 12 10 56 49 97 87 41 38 85
77 97 87 12 10 58 52 103 93 45 41 90 81 99 90 10 8 55 49 101 90 46 41 95 86
109 99 14 12 59 53 100 90 41 36 94 84 117 106 24 22 69 63 100 90 32 28 72
64 90 80 17 17 63 58 100 91 38 34 81 72 95 85 50 46 181 164 203 184 13 11
60 54 106 95 46 41 93 84 105 95 13 11 58 52 100 90 43 39 86 77 95 85 9 8 52
47 96 87 43 39 88 80 100 90 27 24 167 150 209 188 18 17 68 62 111 100 43 39
88 79 99 90 12 11 59 54 106 95 46 41 91 82 99 90 9 8 54 49 100 90 46 41 91
82 100 90 9 8 56 51 106 95 49 44 91 82 94 85 3 3 48 43 100 90 52 47 100 90
106 95 6 6 48 44 94 85 46 41 107 96 134 122 l51 48 -815 0 -815 0 -45 -41z"/>
<path d="M5906 8555 c-24 -21 -153 -137 -190 -170 -12 -11 -60 -54 -105 -95
-46 -41 -96 -86 -111 -100 -15 -14 -49 -45 -76 -69 -92 -82 -175 -156 -215
-192 -52 -49 -178 -162 -209 -189 -25 -21 -168 -150 -200 -180 -9 -8 -58 -53
-110 -100 -52 -47 -101 -92 -110 -100 -9 -8 -50 -44 -90 -80 -40 -36 -85 -76
-100 -90 -86 -78 -134 -122 -199 -180 -41 -36 -83 -74 -95 -85 -29 -26 -186
-167 -200 -180 -15 -13 -208 -187 -222 -200 -6 -5 -49 -44 -95 -85 -46 -41
-98 -88 -115 -105 -18 -16 -56 -51 -86 -77 -30 -26 -68 -60 -84 -75 -16 -15
-47 -43 -67 -61 l-38 -32 0 -548 c1 -301 1 -587 1 -637 l0 -90 23 25 c13 14
52 50 87 80 35 30 74 64 86 75 12 12 44 39 69 60 48 41 62 53 131 115 21 19
59 52 84 74 48 41 168 147 206 181 12 11 35 31 50 44 16 14 65 56 109 95 168
148 218 192 240 211 12 11 38 34 57 50 90 78 175 152 201 177 16 15 47 42 70
60 22 18 48 40 56 49 9 9 56 51 105 93 48 42 94 82 100 89 7 7 37 32 66 57 29
25 58 50 64 56 6 5 106 93 221 194 299 261 347 303 365 320 9 8 45 40 80 70
35 30 71 62 80 70 9 8 42 38 74 65 31 28 69 60 82 73 14 12 27 22 29 22 3 0 4
-208 2 -462 l-2 -463 -392 0 -391 0 -57 -50 c-31 -27 -69 -61 -84 -75 -26 -24
-151 -135 -189 -169 -19 -16 -97 -86 -162 -144 -20 -18 -69 -61 -109 -97 -41
-36 -79 -69 -85 -75 -6 -5 -49 -44 -96 -85 -95 -84 -139 -123 -190 -169 l-34
-31 29 0 c17 -1 420 -1 897 -1 l867 -1 0 -226 c0 -125 0 -237 0 -248 l1 -22
458 0 457 1 -1 1819 c-1 1000 -5 1822 -9 1826 -4 4 -209 7 -456 7 -436 0 -450
0 -473 -20z"/>
<path d="M1036 8562 c-3 -3 -22 -6 -42 -8 -171 -11 -432 -119 -584 -241 -70
-57 -118 -107 -201 -211 -38 -47 -124 -240 -135 -302 -3 -14 -9 -42 -15 -63
-18 -66 -24 -147 -23 -302 1 -157 8 -232 35 -355 26 -121 123 -358 150 -368 5
-2 9 -8 9 -14 0 -15 64 -92 127 -155 126 -124 321 -220 507 -250 33 -5 95 -6
221 -3 114 3 245 -15 302 -42 84 -39 132 -142 136 -288 3 -102 -68 -191 -187
-235 -45 -17 -95 -19 -690 -19 l-641 -1 -3 -391 -2 -391 102 -2 c57 -1 112 -3
123 -5 11 -2 32 0 47 5 14 4 29 5 32 1 3 -3 142 -6 308 -8 167 -1 452 -3 633
-5 301 -2 423 3 450 19 6 4 19 8 30 9 23 4 200 90 218 107 7 6 30 24 52 40 53
38 182 172 220 227 16 24 32 46 36 49 3 3 22 33 42 66 86 143 152 321 184 499
13 71 11 293 -2 370 -15 84 -56 207 -87 263 -10 17 -28 49 -39 70 -28 48 -91
125 -154 184 -72 68 -84 78 -93 78 -5 0 -19 10 -31 22 -60 55 -308 160 -466
198 -76 18 -87 20 -125 25 -19 2 -46 7 -59 9 -13 3 -49 8 -80 11 -112 10 -137
17 -199 51 -74 42 -124 89 -154 147 -34 65 -32 184 5 260 31 62 71 101 132
127 37 17 144 18 1646 17 l1606 0 44 44 c25 24 94 89 154 144 60 55 140 129
179 165 88 82 104 96 216 200 51 47 120 111 153 143 34 33 72 67 84 77 34 26
14 34 -76 31 -42 -1 -83 -3 -91 -3 -8 0 -26 0 -40 1 -14 0 -41 1 -60 2 -19 0
-44 2 -55 3 -11 1 -35 -1 -53 -5 -17 -4 -34 -3 -37 1 -3 4 -21 4 -41 0 -19 -5
-48 -5 -63 0 -16 4 -34 4 -41 0 -6 -4 -26 -4 -44 -1 -17 4 -40 6 -51 5 -38 -4
-90 -6 -185 -5 -96 0 -110 0 -132 2 -7 0 -56 1 -108 0 -52 0 -108 0 -125 0
-16 0 -50 0 -75 0 -25 -1 -61 0 -80 0 -19 1 -57 1 -85 0 -27 0 -57 -1 -65 0
-8 0 -45 0 -82 -1 -37 -1 -71 1 -77 4 -5 4 -12 2 -16 -4 -4 -6 -11 -8 -16 -4
-6 3 -52 5 -102 5 -51 -1 -99 -2 -107 -2 -15 1 -150 0 -180 -1 -8 0 -26 0 -40
1 -14 0 -41 1 -60 2 -19 0 -44 2 -55 3 -11 1 -35 -1 -53 -5 -17 -4 -34 -3 -37
1 -3 4 -21 4 -41 0 -19 -5 -48 -5 -63 0 -16 4 -34 4 -41 0 -6 -4 -26 -4 -44
-1 -31 7 -90 5 -113 -4 -7 -2 -15 0 -18 4 -3 5 -21 5 -41 1 -19 -5 -48 -5 -63
0 -16 4 -34 4 -41 0 -7 -5 -18 -6 -24 -4 -22 8 -82 10 -114 3 -17 -4 -34 -3
-37 1 -3 4 -21 4 -41 0 -19 -5 -48 -5 -63 0 -16 4 -34 4 -41 0 -6 -4 -26 -4
-44 -1 -17 4 -40 6 -51 5 -38 -4 -90 -6 -185 -5 -96 0 -110 0 -132 2 -7 0 -56
1 -108 0 -52 0 -108 0 -125 0 -16 0 -50 0 -75 0 -25 -1 -53 -1 -62 -1 -10 0
-25 0 -33 0 -8 0 -41 0 -72 0 -32 0 -67 -1 -78 -3 -11 -2 -34 -1 -52 3 -18 4
-34 5 -37 2z"/>
<path d="M0 3673 l0 -803 5760 0 5760 0 0 800 c0 755 -1 800 -17 801 -10 0
-2602 2 -5760 2 l-5743 2 0 -802z m2120 582 c67 -9 175 -33 207 -47 15 -6 31
-12 34 -12 14 -2 97 -50 124 -71 l29 -24 -22 -30 c-12 -17 -22 -33 -22 -37 0
-10 -50 -54 -63 -55 -32 -3 -89 19 -139 53 -15 11 -38 21 -50 24 -13 2 -34 6
-48 9 -35 7 -200 7 -230 0 -14 -3 -36 -8 -49 -11 -14 -3 -28 -7 -33 -10 -4 -3
-17 -7 -28 -9 -40 -8 -95 -40 -132 -78 -37 -38 -84 -121 -93 -165 -3 -12 -8
-32 -11 -44 -17 -70 0 -194 38 -275 38 -81 154 -175 233 -189 11 -2 49 -10 85
-17 36 -8 77 -13 90 -12 91 6 171 18 208 31 l42 16 0 94 c0 52 1 97 3 102 1 4
-41 9 -95 12 -120 6 -134 16 -132 92 1 29 2 56 3 61 1 4 101 7 224 7 l222 0 0
-217 0 -216 -75 -38 c-69 -36 -156 -62 -255 -77 -51 -8 -227 -8 -285 0 -102
13 -234 58 -310 104 -63 37 -150 114 -150 131 0 6 -6 13 -13 16 -19 7 -68 111
-84 177 -11 51 -12 214 0 265 2 11 8 42 12 69 12 86 90 184 194 246 123 73
245 116 361 126 30 3 56 7 58 9 4 3 95 -2 152 -10z m1821 -29 c64 -6 160 -37
222 -72 44 -24 87 -66 87 -84 0 -6 4 -10 8 -10 10 0 33 -90 35 -135 2 -45 -13
-125 -24 -125 -5 0 -9 -6 -9 -14 0 -22 -110 -131 -152 -151 -20 -9 -56 -22
-78 -29 l-42 -12 34 -23 c18 -13 76 -78 128 -143 52 -66 100 -125 105 -132 38
-42 145 -179 142 -183 -2 -2 -37 -6 -78 -9 -41 -3 -85 -7 -99 -8 -41 -4 -77
14 -107 52 -15 20 -32 42 -38 48 -31 33 -211 256 -242 300 -12 16 -37 35 -55
40 -26 8 -110 11 -150 5 -4 -1 -7 -34 -7 -73 0 -40 0 -137 0 -215 l-1 -143
-125 0 c-69 0 -126 3 -126 8 -1 4 -2 255 -3 559 l-1 552 30 3 c47 5 483 0 546
-6z m1949 0 c36 -4 83 -9 105 -11 56 -7 192 -76 249 -126 47 -41 126 -140 126
-157 0 -4 9 -27 20 -50 33 -69 43 -188 26 -325 -3 -27 -8 -52 -11 -57 -3 -4
-7 -24 -9 -44 -7 -54 -60 -125 -156 -209 -46 -41 -211 -116 -291 -132 -126
-26 -326 -23 -379 5 -8 4 -18 8 -23 8 -32 1 -151 51 -201 84 -194 131 -281
327 -242 542 10 55 41 142 56 156 3 3 14 19 24 35 27 43 114 131 161 163 98
68 228 111 355 119 52 3 97 7 98 9 2 1 9 1 15 -1 7 -2 41 -6 77 -9z m1556 5
l52 -1 0 -360 c0 -198 4 -375 7 -393 16 -74 76 -143 160 -183 43 -20 61 -23
135 -19 143 7 183 23 243 98 65 82 64 70 63 482 -1 244 3 375 9 376 54 3 235
0 241 -4 15 -9 9 -765 -6 -812 -31 -94 -136 -212 -228 -257 -169 -80 -471 -80
-640 0 -104 49 -201 163 -218 255 -2 17 -8 35 -12 41 -4 6 -8 183 -8 393 l-2
382 42 3 c22 2 57 2 76 1 19 -1 58 -2 86 -2z m2354 -5 c41 -3 84 -8 95 -10 11
-3 29 -5 41 -5 30 -1 154 -78 195 -122 42 -44 80 -162 72 -226 -6 -54 -10 -78
-13 -80 -1 -2 -3 -7 -4 -12 0 -5 -4 -13 -8 -17 -5 -4 -8 -16 -8 -27 0 -49
-183 -174 -280 -191 -19 -3 -46 -8 -60 -11 -49 -11 -97 -14 -212 -14 l-117 -1
0 -157 c0 -87 0 -177 0 -201 l-1 -43 -127 3 -128 3 0 557 0 557 40 3 c63 5
432 0 515 -6z"/>
<path d="M3606 3893 c1 -98 2 -180 3 -183 0 -3 65 -5 144 -5 177 1 212 15 264
110 28 52 23 148 -11 180 -59 57 -116 73 -273 74 l-128 2 1 -178z"/>
<path d="M5607 4049 c-70 -21 -147 -69 -180 -112 -33 -44 -68 -114 -72 -146
-2 -14 -4 -26 -5 -26 -6 0 -12 -49 -12 -95 0 -103 45 -222 108 -285 91 -91
270 -133 424 -100 187 41 299 197 296 411 -1 71 -5 89 -39 156 -48 99 -136
177 -215 193 -9 1 -36 8 -60 14 -58 16 -175 11 -245 -10z"/>
<path d="M9520 4070 l-35 -5 0 -195 0 -195 143 -1 c129 -1 147 1 193 22 56 26
67 36 103 89 20 29 26 50 26 90 0 132 -87 191 -290 197 -58 2 -121 1 -140 -2z"/>
</g>
</svg>
