<svg xmlnsXodm="http://www.corel.com/coreldraw/odm/2003" xmlns="http://www.w3.org/2000/svg" xmlnsXlink="http://www.w3.org/1999/xlink" version="1.1" id="Layer_1" x="0px" y="0px" viewBox="0 0 71.9 36" style="enable-background:new 0 0 71.9 36;" xml:space="preserve">
<style type="text/css">
	.st0{fill:#1A3077;}
</style>
<g id="Layer_x0020_1">
	<path class="st0" d="M0,23.2v-4.9h7.9c0,0,1.7-0.2,1.6-1.7c-0.1-1.5-0.7-1.8-1.8-1.9c-1.1-0.1-0.4-0.1-1.6,0c-1.2,0-5.7-0.7-5.9-7   s5.4-7.2,6.4-7.2h26.1l-5.4,5h-20c0,0-1.2,0.2-1.3,1.7c-0.1,1.5,1.7,2,1.7,2c12.5,0.9,7.7,14.1,1.8,14.1L0,23.2L0,23.2z"/>
	<polygon class="st0" points="19.9,15.8 19.9,23.7 37,8.7 37,14.5 32.1,14.5 25.8,20.1 37,20.1 37,23.2 42.7,23.2 42.7,0.4 37,0.4     "/>
	<polygon class="st0" points="45.4,5.7 45.4,23.7 71.7,0 61.5,0 52.1,8.7 52.1,0.1  "/>
	<path class="st0" d="M0,26h71.9v10H0V26z M15.7,31h-2.8v0.7c0,0.1,0,0.1,0.1,0.2c0.1,0,0.1,0.1,0.2,0.1h1.1v1.3   c-0.2,0.1-0.5,0.2-0.7,0.2s-0.5,0.1-0.8,0.1c-0.4,0-0.8-0.1-1.2-0.2c-0.4-0.1-0.7-0.3-0.9-0.5c-0.3-0.2-0.4-0.5-0.6-0.8   c-0.1-0.3-0.2-0.7-0.2-1.1c0-0.4,0.1-0.7,0.2-1c0.1-0.3,0.3-0.6,0.5-0.8s0.5-0.4,0.9-0.5c0.3-0.1,0.7-0.2,1.1-0.2   c0.3,0,0.5,0,0.7,0c0.2,0,0.4,0.1,0.5,0.1c0.2,0,0.3,0.1,0.4,0.2c0.1,0.1,0.3,0.1,0.4,0.2c0.1,0.1,0.3,0.1,0.4,0.1   c0.1,0,0.2-0.1,0.3-0.2l0.4-0.6c-0.2-0.1-0.4-0.3-0.6-0.4s-0.4-0.2-0.7-0.3c-0.3-0.1-0.5-0.1-0.8-0.2c-0.3,0-0.6-0.1-1-0.1   c-0.7,0-1.3,0.1-1.8,0.3c-0.5,0.2-1,0.4-1.4,0.7c-0.4,0.3-0.7,0.7-0.9,1.1C8.4,30,8.3,30.5,8.3,31c0,0.5,0.1,1,0.3,1.4   c0.2,0.4,0.5,0.8,0.9,1.1c0.4,0.3,0.9,0.6,1.4,0.7c0.6,0.2,1.2,0.3,1.9,0.3c0.5,0,1.1-0.1,1.5-0.2c0.5-0.1,0.9-0.3,1.4-0.6L15.7,31   L15.7,31z M23.5,30.8h-1v-2.3h1c0.6,0,1,0.1,1.3,0.3c0.3,0.2,0.4,0.5,0.4,0.8c0,0.2,0,0.3-0.1,0.5c-0.1,0.1-0.2,0.3-0.3,0.4   c-0.1,0.1-0.3,0.2-0.5,0.3C24.1,30.8,23.8,30.8,23.5,30.8L23.5,30.8z M27.5,34.5l-2.1-2.6c-0.1-0.1-0.1-0.2-0.2-0.2   c-0.1-0.1-0.2-0.1-0.3-0.2c0.3-0.1,0.6-0.2,0.8-0.3c0.2-0.1,0.4-0.3,0.6-0.5c0.2-0.2,0.3-0.4,0.4-0.6c0.1-0.2,0.1-0.4,0.1-0.7   c0-0.3-0.1-0.6-0.2-0.8c-0.1-0.2-0.3-0.5-0.6-0.6c-0.3-0.2-0.6-0.3-1-0.4c-0.4-0.1-0.9-0.1-1.5-0.1H21v7h1.6v-2.7h0.7   c0.2,0,0.3,0,0.4,0.1c0.1,0,0.2,0.1,0.2,0.2l1.8,2.2c0.1,0.2,0.3,0.3,0.6,0.3L27.5,34.5L27.5,34.5z M40.1,31c0-0.3,0-0.7-0.1-1   c-0.1-0.3-0.2-0.6-0.4-0.9c-0.2-0.3-0.4-0.5-0.6-0.7c-0.3-0.2-0.5-0.4-0.8-0.5c-0.3-0.2-0.7-0.3-1-0.3c-0.4-0.1-0.8-0.1-1.2-0.1   c-0.6,0-1.2,0.1-1.7,0.3c-0.5,0.2-1,0.4-1.3,0.8c-0.4,0.3-0.7,0.7-0.9,1.1c-0.2,0.4-0.3,0.9-0.3,1.4c0,0.5,0.1,1,0.3,1.4   c0.2,0.4,0.5,0.8,0.9,1.1c0.4,0.3,0.8,0.6,1.3,0.7c0.5,0.2,1.1,0.3,1.7,0.3c0.6,0,1.2-0.1,1.7-0.3c0.5-0.2,1-0.4,1.3-0.7   c0.4-0.3,0.7-0.7,0.9-1.1C40,32,40.1,31.5,40.1,31L40.1,31z M38.5,31c0,0.4-0.1,0.7-0.2,1c-0.1,0.3-0.3,0.6-0.5,0.8   c-0.2,0.2-0.5,0.4-0.8,0.5c-0.3,0.1-0.7,0.2-1.1,0.2c-0.4,0-0.8-0.1-1.1-0.2c-0.3-0.1-0.6-0.3-0.8-0.5c-0.2-0.2-0.4-0.5-0.5-0.8   c-0.1-0.3-0.2-0.6-0.2-1c0-0.4,0.1-0.7,0.2-1c0.1-0.3,0.3-0.6,0.5-0.8c0.2-0.2,0.5-0.4,0.8-0.5c0.3-0.1,0.7-0.2,1.1-0.2   c0.4,0,0.8,0.1,1.1,0.2c0.3,0.1,0.6,0.3,0.8,0.5c0.2,0.2,0.4,0.5,0.5,0.8C38.5,30.3,38.5,30.6,38.5,31z M48.7,33.5   c-0.3,0-0.6,0-0.8-0.1c-0.2-0.1-0.4-0.2-0.6-0.4c-0.2-0.2-0.3-0.3-0.4-0.6c-0.1-0.2-0.1-0.5-0.1-0.7v-4.2h-1.6v4.2   c0,0.4,0.1,0.8,0.2,1.2c0.2,0.4,0.4,0.7,0.7,0.9c0.3,0.3,0.7,0.5,1.1,0.6c0.4,0.1,0.9,0.2,1.5,0.2c0.5,0,1-0.1,1.5-0.2   c0.4-0.1,0.8-0.3,1.1-0.6c0.3-0.3,0.5-0.6,0.7-0.9c0.2-0.4,0.2-0.7,0.2-1.2v-4.2h-1.6v4.2c0,0.3,0,0.5-0.1,0.7   c-0.1,0.2-0.2,0.4-0.4,0.6c-0.2,0.2-0.4,0.3-0.6,0.4C49.2,33.4,49,33.5,48.7,33.5L48.7,33.5z M60.4,31h-1.2v-2.5h1.2   c0.3,0,0.5,0,0.8,0.1c0.2,0.1,0.4,0.1,0.5,0.2c0.1,0.1,0.2,0.2,0.3,0.4c0.1,0.2,0.1,0.3,0.1,0.5c0,0.2,0,0.4-0.1,0.5   c-0.1,0.2-0.2,0.3-0.3,0.4c-0.1,0.1-0.3,0.2-0.5,0.3C61,31,60.7,31,60.4,31L60.4,31z M60.4,27.5h-2.7v7h1.6V32h1.2   c0.5,0,1-0.1,1.4-0.2c0.4-0.1,0.7-0.3,1-0.5c0.3-0.2,0.5-0.4,0.6-0.7c0.1-0.3,0.2-0.6,0.2-0.9c0-0.3-0.1-0.6-0.2-0.9   c-0.1-0.3-0.3-0.5-0.6-0.7c-0.3-0.2-0.6-0.4-1-0.5C61.5,27.6,61,27.5,60.4,27.5L60.4,27.5z"/>
</g>
</svg>